<svg width="41" height="40" viewBox="0 0 41 40" fill="none" xmlns="http://www.w3.org/2000/svg">
<rect x="1" y="0.5" width="39" height="39" rx="19.5" stroke="#266294"/>
<path d="M20.5004 32C18.5274 31.9993 16.5849 31.512 14.845 30.5814C13.1052 29.6508 11.6217 28.3055 10.5258 26.6647C9.42999 25.0239 8.75565 23.1382 8.56251 21.1746C8.36938 19.211 8.66341 17.2301 9.41858 15.4072C10.1737 13.5843 11.3667 11.9758 12.8919 10.7241C14.4171 9.47231 16.2274 8.61595 18.1626 8.23082C20.0977 7.84569 22.098 7.94367 23.9862 8.51608C25.8744 9.08849 27.5924 10.1177 28.9879 11.5125C29.175 11.7 29.28 11.954 29.28 12.2188C29.28 12.4835 29.175 12.7375 28.9879 12.925C28.896 13.0191 28.7861 13.0939 28.6648 13.1449C28.5436 13.196 28.4133 13.2223 28.2817 13.2223C28.1501 13.2223 28.0198 13.196 27.8986 13.1449C27.7773 13.0939 27.6674 13.0191 27.5754 12.925C25.9707 11.3188 23.8671 10.3066 21.6107 10.0547C19.3542 9.80281 17.0792 10.3263 15.1598 11.5391C13.2404 12.7518 11.7908 14.5817 11.0494 16.7277C10.308 18.8737 10.319 21.2082 11.0806 23.3471C11.8421 25.486 13.3089 27.3022 15.2396 28.4968C17.1704 29.6914 19.4502 30.1935 21.7042 29.9204C23.9582 29.6472 26.0521 28.6152 27.6417 26.994C29.2313 25.3728 30.2218 23.2589 30.4504 21H20.5004C20.2352 21 19.9809 20.8946 19.7933 20.7071C19.6058 20.5196 19.5004 20.2652 19.5004 20C19.5004 19.7348 19.6058 19.4804 19.7933 19.2929C19.9809 19.1054 20.2352 19 20.5004 19H31.5004C31.7657 19 32.02 19.1054 32.2076 19.2929C32.3951 19.4804 32.5004 19.7348 32.5004 20C32.4938 23.1806 31.2274 26.229 28.9784 28.478C26.7294 30.727 23.681 31.9934 20.5004 32Z" fill="#266294"/>
</svg>
