<svg width="20" height="19" viewBox="0 0 20 19" fill="none" xmlns="http://www.w3.org/2000/svg">
<path d="M10.1 16.05L10 16.15L9.89 16.05C5.14 11.74 2 8.89 2 6C2 4 3.5 2.5 5.5 2.5C7.04 2.5 8.54 3.5 9.07 4.86H10.93C11.46 3.5 12.96 2.5 14.5 2.5C16.5 2.5 18 4 18 6C18 8.89 14.86 11.74 10.1 16.05ZM14.5 0.5C12.76 0.5 11.09 1.31 10 2.58C8.91 1.31 7.24 0.5 5.5 0.5C2.42 0.5 0 2.91 0 6C0 9.77 3.4 12.86 8.55 17.53L10 18.85L11.45 17.53C16.6 12.86 20 9.77 20 6C20 2.91 17.58 0.5 14.5 0.5Z" fill="#266294"/>
</svg>
